HIERARCHY
ROOT Hips
{
	OFFSET 0.00000 0.00000 0.00000
	CHANNELS 6 Xposition Yposition Zposition Zrotation Yrotation Xrotation 
	JOINT LHipJoint
	{
		OFFSET 0 0 0
		CHANNELS 3 Zrotation Yrotation Xrotation
		JOINT LeftUpLeg
		{
			OFFSET 1.62329 -1.80800 0.67318
			CHANNELS 3 Zrotation Yrotation Xrotation
			JOINT LeftLeg
			{
				OFFSET 2.57139 -7.06484 0.00000
				CHANNELS 3 Zrotation Yrotation Xrotation
				JOINT LeftFoot
				{
					OFFSET 2.52017 -6.92413 0.00000
					CHANNELS 3 Zrotation Yrotation Xrotation
					JOINT LeftToeBase
					{
						OFFSET 0.23295 -0.64001 2.10214
						CHANNELS 3 Zrotation Yrotation Xrotation
						End Site
						{
							OFFSET 0.00000 -0.00000 1.10139
						}
					}
				}
			}
		}
	}
	JOINT RHipJoint
	{
		OFFSET 0 0 0
		CHANNELS 3 Zrotation Yrotation Xrotation
		JOINT RightUpLeg
		{
			OFFSET -1.48061 -1.80800 0.67318
			CHANNELS 3 Zrotation Yrotation Xrotation
			JOINT RightLeg
			{
				OFFSET -2.63258 -7.23296 0.00000
				CHANNELS 3 Zrotation Yrotation Xrotation
				JOINT RightFoot
				{
					OFFSET -2.54779 -7.00000 0.00000
					CHANNELS 3 Zrotation Yrotation Xrotation
					JOINT RightToeBase
					{
						OFFSET -0.23067 -0.63376 2.12161
						CHANNELS 3 Zrotation Yrotation Xrotation
						End Site
						{
							OFFSET -0.00000 -0.00000 1.11000
						}
					}
				}
			}
		}
	}
	JOINT LowerBack
	{
		OFFSET 0 0 0
		CHANNELS 3 Zrotation Yrotation Xrotation
		JOINT Spine
		{
			OFFSET -0.02108 2.07573 -0.16981
			CHANNELS 3 Zrotation Yrotation Xrotation
			JOINT Spine1
			{
				OFFSET 0.05070 2.08439 -0.03141
				CHANNELS 3 Zrotation Yrotation Xrotation
				JOINT Neck
				{
					OFFSET 0 0 0
					CHANNELS 3 Zrotation Yrotation Xrotation
					JOINT Neck1
					{
						OFFSET -0.10731 1.60408 0.31370
						CHANNELS 3 Zrotation Yrotation Xrotation
						JOINT Head
						{
							OFFSET 0.08411 1.65679 -0.30822
							CHANNELS 3 Zrotation Yrotation Xrotation
							End Site
							{
								OFFSET 0.03911 1.69149 -0.14146
							}
						}
					}
				}
				JOINT LeftShoulder
				{
					OFFSET 0 0 0
					CHANNELS 3 Zrotation Yrotation Xrotation
					JOINT LeftArm
					{
						OFFSET 3.52315 0.73219 -0.54694
						CHANNELS 3 Zrotation Yrotation Xrotation
						JOINT LeftForeArm
						{
							OFFSET 5.32462 -0.00000 -0.00000
							CHANNELS 3 Zrotation Yrotation Xrotation
							JOINT LeftHand
							{
								OFFSET 3.48402 -0.00000 -0.00000
								CHANNELS 3 Zrotation Yrotation Xrotation
								JOINT LeftFingerBase
								{
									OFFSET 0 0 0
									CHANNELS 3 Zrotation Yrotation Xrotation
									JOINT LeftHandIndex1
									{
										OFFSET 0.57248 -0.00000 -0.00000
										CHANNELS 3 Zrotation Yrotation Xrotation
										End Site
										{
											OFFSET 0.46154 -0.00000 -0.00000
										}
									}
								}
								JOINT LThumb
								{
									OFFSET 0 0 0
									CHANNELS 3 Zrotation Yrotation Xrotation
									End Site
									{
										OFFSET 0.46859 -0.00000 0.46859
									}
								}
							}
						}
					}
				}
				JOINT RightShoulder
				{
					OFFSET 0 0 0
					CHANNELS 3 Zrotation Yrotation Xrotation
					JOINT RightArm
					{
						OFFSET -3.41766 0.93592 -0.10019
						CHANNELS 3 Zrotation Yrotation Xrotation
						JOINT RightForeArm
						{
							OFFSET -5.33589 -0.00000 -0.00000
							CHANNELS 3 Zrotation Yrotation Xrotation
							JOINT RightHand
							{
								OFFSET -3.64134 -0.00000 -0.00000
								CHANNELS 3 Zrotation Yrotation Xrotation
								JOINT RightFingerBase
								{
									OFFSET 0 0 0
									CHANNELS 3 Zrotation Yrotation Xrotation
									JOINT RightHandIndex1
									{
										OFFSET -0.73481 -0.00000 -0.00000
										CHANNELS 3 Zrotation Yrotation Xrotation
										End Site
										{
											OFFSET -0.59242 -0.00000 -0.00000
										}
									}
								}
								JOINT RThumb
								{
									OFFSET 0 0 0
									CHANNELS 3 Zrotation Yrotation Xrotation
									End Site
									{
										OFFSET -0.60147 -0.00000 0.60147
									}
								}
							}
						}
					}
				}
			}
		}
	}
}
MOTION
Frames: 5
Frame Time: .0083333
-0.4303 17.8294 -2.7245 11.7896 -71.5606 -6.2244 0.0000 0.0000 0.0000 -11.3044 -5.2246 -41.0253 13.3667 18.9106 70.2606 -0.1566 -7.2554 4.6998 0.7828 -5.6485 -15.7679 0.0000 0.0000 0.0000 7.8215 -0.1049 -14.0083 -5.9331 -14.3632 44.7127 0.0428 7.9006 -4.5771 -0.0614 -1.5986 4.3977 2.2849 3.9682 11.9368 2.3062 5.6347 1.2899 0.2186 2.7178 -5.3338 -4.2135 7.1854 -23.2323 -1.1554 11.8277 22.1689 2.1080 4.8316 10.8071 -0.0000 -0.0000 0.0000 -84.7510 -8.6233 24.8093 141.8265 -46.9498 -102.9077 -0.0000 -0.0000 12.9918 9.9872 5.1635 0.9080 -7.1250 0.0000 -0.0000 -13.7856 34.9454 3.4880 -0.0000 -0.0000 0.0000 78.9776 28.0768 45.4647 -120.4421 56.1910 -86.0265 0.0000 0.0000 2.7872 -20.2214 27.2768 -9.5819 7.1250 -0.0000 -0.0000 5.9131 -1.3254 5.8060
-0.4590 17.8749 -2.6424 14.7330 -72.2798 -9.2747 0.0000 0.0000 0.0000 -12.0097 -5.3490 -40.7642 12.9228 18.7541 68.8856 -0.1482 -7.1381 4.8952 0.8370 -5.8361 -16.3095 0.0000 0.0000 0.0000 6.3828 0.5634 -14.9073 -6.3753 -14.7825 46.4702 0.0438 6.4537 -3.2745 -0.0774 -1.7942 4.9373 2.0326 4.0069 12.4376 2.2018 5.6643 1.2745 0.2071 2.7307 -5.6415 -4.0690 7.3963 -23.1697 -1.4685 12.1615 22.2885 2.0290 4.9466 10.8682 -0.0000 0.0000 0.0000 -84.3300 -8.3051 24.4606 141.8039 -46.9641 -102.8912 -0.0000 -0.0000 12.7778 9.9536 5.4081 0.9476 -7.1250 0.0000 -0.0000 -13.8577 35.1847 3.4242 -0.0000 0.0000 0.0000 78.9543 27.8775 45.7619 -119.5238 56.4355 -85.2623 0.0000 0.0000 2.9337 -19.9189 27.3947 -9.4660 7.1250 -0.0000 -0.0000 6.1061 -1.2594 6.0049
-0.4885 17.9095 -2.5640 17.7072 -72.9768 -12.4331 0.0000 0.0000 0.0000 -12.5470 -5.4537 -40.3832 12.4264 18.5651 67.3340 -0.1448 -7.1389 5.1458 0.9306 -6.1451 -17.2061 0.0000 0.0000 0.0000 5.1027 1.2418 -15.8111 -6.8336 -15.1902 48.2422 0.0277 5.0623 -2.5343 -0.0248 -1.0175 2.7971 1.8386 4.0968 12.9593 2.0840 5.7614 1.3314 0.1386 2.7758 -5.8770 -3.9575 7.5317 -23.1505 -1.6977 12.3763 22.3291 1.9658 5.0198 10.9025 0.0000 0.0000 0.0000 -83.7812 -8.2337 24.1873 141.8115 -46.9593 -102.8967 -0.0000 -0.0000 12.5121 10.2305 6.1203 1.1024 -7.1250 0.0000 -0.0000 -13.7658 35.9012 3.1533 0.0000 0.0000 0.0000 78.8130 27.5686 45.8073 -118.9951 56.5718 -84.8215 0.0000 0.0000 3.3804 -19.7483 27.5090 -9.4151 7.1250 -0.0000 -0.0000 6.2199 -1.1731 6.1277
-0.5223 17.9318 -2.4901 20.8605 -73.6270 -15.7454 0.0000 0.0000 0.0000 -12.9601 -5.5726 -39.9583 11.8774 18.3384 65.5998 -0.1330 -7.0208 5.5184 1.0162 -6.4136 -17.9893 0.0000 0.0000 0.0000 3.8953 1.8631 -16.7337 -7.2899 -15.5712 49.9625 0.0086 3.9653 -2.3947 -0.0010 -0.2018 0.5545 1.6740 4.1989 13.2788 1.8781 5.8611 1.4775 -0.0206 2.8245 -5.8928 -3.7734 7.6226 -23.1963 -1.8237 12.4728 22.2795 1.9097 5.0638 10.9133 -0.0000 0.0000 0.0000 -82.9378 -8.5081 23.7755 141.7330 -47.0090 -102.8394 -0.0000 -0.0000 12.2627 10.2397 5.9406 1.0711 -7.1250 0.0000 -0.0000 -13.7242 35.7244 3.2041 -0.0000 0.0000 0.0000 78.8605 27.2320 45.8339 -118.6897 56.6491 -84.5665 0.0000 0.0000 4.3116 -19.7937 27.5396 -9.4476 7.1250 -0.0000 -0.0000 6.1963 -1.1336 6.1085
-0.5615 17.9379 -2.4219 24.1082 -74.1851 -19.1109 0.0000 0.0000 0.0000 -13.2467 -5.6510 -39.5522 11.2891 18.0737 63.7168 -0.1175 -6.9183 6.0731 1.0960 -6.6527 -18.6905 0.0000 0.0000 0.0000 2.7989 2.4766 -17.5309 -7.7154 -15.9059 51.5309 -0.0331 2.9708 -3.5897 -0.0069 -0.5376 1.4774 1.4214 4.3466 13.5063 1.6860 6.0070 1.6028 -0.1199 2.8988 -5.8897 -3.5888 7.6784 -23.2172 -1.9396 12.5150 22.2200 1.8474 5.0856 10.9160 0.0000 0.0000 0.0000 -81.9816 -8.8977 23.4243 141.5552 -47.1210 -102.7092 -0.0000 -0.0000 12.2076 9.9059 4.8216 0.8410 -7.1250 0.0000 -0.0000 -13.7897 34.6046 3.6066 0.0000 0.0000 0.0000 78.8487 26.7749 45.6796 -118.5887 56.6744 -84.4822 0.0000 0.0000 5.4560 -19.5657 27.7667 -9.4015 7.1250 -0.0000 -0.0000 6.3563 -0.9425 6.2899
